<svg xmlns="http://www.w3.org/2000/svg" xmlns:xlink="http://www.w3.org/1999/xlink" contentStyleType="text/css" data-diagram-type="DESCRIPTION" height="876px" preserveAspectRatio="none" style="width:1405px;height:876px;background:#FFFFFF;" version="1.1" viewBox="0 0 1405 876" width="1405px" zoomAndPan="magnify"><defs/><g><!--cluster FastMBO--><g class="cluster" data-entity="FastMBO" data-source-line="3" data-uid="ent0002" id="cluster_FastMBO"><path d="M8.5,128.5 L80.04,128.5 A3.75,3.75 0 0 1 82.54,131 L89.54,150.7969 L1153.5,150.7969 A2.5,2.5 0 0 1 1156,153.2969 L1156,867 A2.5,2.5 0 0 1 1153.5,869.5 L8.5,869.5 A2.5,2.5 0 0 1 6,867 L6,131 A2.5,2.5 0 0 1 8.5,128.5" fill="none" style="stroke:#000000;stroke-width:1.5;"/><line style="stroke:#000000;stroke-width:1.5;" x1="6" x2="89.54" y1="150.7969" y2="150.7969"/><text fill="#000000" font-family="sans-serif" font-size="14" font-weight="bold" lengthAdjust="spacing" textLength="70.54" x="10" y="143.4951">FastMBO</text></g><!--cluster MinIO Service--><g class="cluster" data-entity="MinIO Service" data-source-line="14" data-uid="ent0011" id="cluster_MinIO Service"><path d="M1182.5,630.5 L1292.3828,630.5 A3.75,3.75 0 0 1 1294.8828,633 L1301.8828,652.7969 L1395.5,652.7969 A2.5,2.5 0 0 1 1398,655.2969 L1398,742 A2.5,2.5 0 0 1 1395.5,744.5 L1182.5,744.5 A2.5,2.5 0 0 1 1180,742 L1180,633 A2.5,2.5 0 0 1 1182.5,630.5" fill="none" style="stroke:#000000;stroke-width:1.5;"/><line style="stroke:#000000;stroke-width:1.5;" x1="1180" x2="1301.8828" y1="652.7969" y2="652.7969"/><text fill="#000000" font-family="sans-serif" font-size="14" font-weight="bold" lengthAdjust="spacing" textLength="108.8828" x="1184" y="645.4951">MinIO Service</text></g><!--entity UI--><g class="entity" data-entity="UI" data-source-line="4" data-uid="ent0003" id="entity_UI"><rect fill="#F1F1F1" height="62.5938" rx="2.5" ry="2.5" style="stroke:#181818;stroke-width:0.5;" width="202.0254" x="272" y="163.5"/><rect fill="#F1F1F1" height="10" style="stroke:#181818;stroke-width:0.5;" width="15" x="454.0254" y="168.5"/><rect fill="#F1F1F1" height="2" style="stroke:#181818;stroke-width:0.5;" width="4" x="452.0254" y="170.5"/><rect fill="#F1F1F1" height="2" style="stroke:#181818;stroke-width:0.5;" width="4" x="452.0254" y="174.5"/><text fill="#000000" font-family="sans-serif" font-size="14" lengthAdjust="spacing" textLength="50.1689" x="287" y="196.4951">Web UI</text><text fill="#000000" font-family="sans-serif" font-size="14" lengthAdjust="spacing" textLength="162.0254" x="287" y="212.792">(Thymeleaf, Bootstrap)</text></g><!--entity API--><g class="entity" data-entity="API" data-source-line="5" data-uid="ent0004" id="entity_API"><rect fill="#F1F1F1" height="62.5938" rx="2.5" ry="2.5" style="stroke:#181818;stroke-width:0.5;" width="132.7773" x="306.5" y="303.5"/><rect fill="#F1F1F1" height="10" style="stroke:#181818;stroke-width:0.5;" width="15" x="419.2773" y="308.5"/><rect fill="#F1F1F1" height="2" style="stroke:#181818;stroke-width:0.5;" width="4" x="417.2773" y="310.5"/><rect fill="#F1F1F1" height="2" style="stroke:#181818;stroke-width:0.5;" width="4" x="417.2773" y="314.5"/><text fill="#000000" font-family="sans-serif" font-size="14" lengthAdjust="spacing" textLength="62.6104" x="321.5" y="336.4951">REST API</text><text fill="#000000" font-family="sans-serif" font-size="14" lengthAdjust="spacing" textLength="92.7773" x="321.5" y="352.792">(Spring Boot)</text></g><!--entity Auth--><g class="entity" data-entity="Auth" data-source-line="6" data-uid="ent0005" id="entity_Auth"><rect fill="#F1F1F1" height="62.5938" rx="2.5" ry="2.5" style="stroke:#181818;stroke-width:0.5;" width="158.043" x="107" y="551.5"/><rect fill="#F1F1F1" height="10" style="stroke:#181818;stroke-width:0.5;" width="15" x="245.043" y="556.5"/><rect fill="#F1F1F1" height="2" style="stroke:#181818;stroke-width:0.5;" width="4" x="243.043" y="558.5"/><rect fill="#F1F1F1" height="2" style="stroke:#181818;stroke-width:0.5;" width="4" x="243.043" y="562.5"/><text fill="#000000" font-family="sans-serif" font-size="14" lengthAdjust="spacing" textLength="91.3145" x="122" y="584.4951">Auth &amp; RBAC</text><text fill="#000000" font-family="sans-serif" font-size="14" lengthAdjust="spacing" textLength="118.043" x="122" y="600.792">(Spring Security)</text></g><!--entity Services--><g class="entity" data-entity="Services" data-source-line="7" data-uid="ent0006" id="entity_Services"><rect fill="#F1F1F1" height="62.5938" rx="2.5" ry="2.5" style="stroke:#181818;stroke-width:0.5;" width="153.4424" x="640.5" y="458.5"/><rect fill="#F1F1F1" height="10" style="stroke:#181818;stroke-width:0.5;" width="15" x="773.9424" y="463.5"/><rect fill="#F1F1F1" height="2" style="stroke:#181818;stroke-width:0.5;" width="4" x="771.9424" y="465.5"/><rect fill="#F1F1F1" height="2" style="stroke:#181818;stroke-width:0.5;" width="4" x="771.9424" y="469.5"/><text fill="#000000" font-family="sans-serif" font-size="14" lengthAdjust="spacing" textLength="107.666" x="655.5" y="491.4951">&#1041;&#1080;&#1079;&#1085;&#1077;&#1089;-&#1083;&#1086;&#1075;&#1080;&#1082;&#1072;</text><text fill="#000000" font-family="sans-serif" font-size="14" lengthAdjust="spacing" textLength="113.4424" x="655.5" y="507.792">(Services Layer)</text></g><!--entity Reporting--><g class="entity" data-entity="Reporting" data-source-line="8" data-uid="ent0007" id="entity_Reporting"><rect fill="#F1F1F1" height="62.5938" rx="2.5" ry="2.5" style="stroke:#181818;stroke-width:0.5;" width="171.8652" x="300" y="665.5"/><rect fill="#F1F1F1" height="10" style="stroke:#181818;stroke-width:0.5;" width="15" x="451.8652" y="670.5"/><rect fill="#F1F1F1" height="2" style="stroke:#181818;stroke-width:0.5;" width="4" x="449.8652" y="672.5"/><rect fill="#F1F1F1" height="2" style="stroke:#181818;stroke-width:0.5;" width="4" x="449.8652" y="676.5"/><text fill="#000000" font-family="sans-serif" font-size="14" lengthAdjust="spacing" textLength="131.8652" x="315" y="698.4951">&#1054;&#1090;&#1095;&#1077;&#1090;&#1099; &#1080; &#1101;&#1082;&#1089;&#1087;&#1086;&#1088;&#1090;</text><text fill="#000000" font-family="sans-serif" font-size="14" lengthAdjust="spacing" textLength="79.6113" x="315" y="714.792">(Reporting)</text></g><!--entity Audit--><g class="entity" data-entity="Audit" data-source-line="9" data-uid="ent0008" id="entity_Audit"><rect fill="#F1F1F1" height="62.5938" rx="2.5" ry="2.5" style="stroke:#181818;stroke-width:0.5;" width="230.9756" x="507.5" y="665.5"/><rect fill="#F1F1F1" height="10" style="stroke:#181818;stroke-width:0.5;" width="15" x="718.4756" y="670.5"/><rect fill="#F1F1F1" height="2" style="stroke:#181818;stroke-width:0.5;" width="4" x="716.4756" y="672.5"/><rect fill="#F1F1F1" height="2" style="stroke:#181818;stroke-width:0.5;" width="4" x="716.4756" y="676.5"/><text fill="#000000" font-family="sans-serif" font-size="14" lengthAdjust="spacing" textLength="190.9756" x="522.5" y="698.4951">&#1046;&#1091;&#1088;&#1085;&#1072;&#1083;&#1080;&#1088;&#1086;&#1074;&#1072;&#1085;&#1080;&#1077; &#1080; &#1072;&#1091;&#1076;&#1080;&#1090;</text><text fill="#000000" font-family="sans-serif" font-size="14" lengthAdjust="spacing" textLength="77.3418" x="522.5" y="714.792">(Audit Log)</text></g><!--entity Files--><g class="entity" data-entity="Files" data-source-line="10" data-uid="ent0009" id="entity_Files"><rect fill="#F1F1F1" height="62.5938" rx="2.5" ry="2.5" style="stroke:#181818;stroke-width:0.5;" width="171.5508" x="774" y="665.5"/><rect fill="#F1F1F1" height="10" style="stroke:#181818;stroke-width:0.5;" width="15" x="925.5508" y="670.5"/><rect fill="#F1F1F1" height="2" style="stroke:#181818;stroke-width:0.5;" width="4" x="923.5508" y="672.5"/><rect fill="#F1F1F1" height="2" style="stroke:#181818;stroke-width:0.5;" width="4" x="923.5508" y="676.5"/><text fill="#000000" font-family="sans-serif" font-size="14" lengthAdjust="spacing" textLength="131.5508" x="789" y="698.4951">&#1061;&#1088;&#1072;&#1085;&#1077;&#1085;&#1080;&#1077; &#1092;&#1072;&#1081;&#1083;&#1086;&#1074;</text><text fill="#000000" font-family="sans-serif" font-size="14" lengthAdjust="spacing" textLength="94.5957" x="789" y="714.792">(File Storage)</text></g><!--entity DB--><g class="entity" data-entity="DB" data-source-line="11" data-uid="ent0010" id="entity_DB"><rect fill="#F1F1F1" height="46.2969" rx="2.5" ry="2.5" style="stroke:#181818;stroke-width:0.5;" width="156.6689" x="544.5" y="807.5"/><rect fill="#F1F1F1" height="10" style="stroke:#181818;stroke-width:0.5;" width="15" x="681.1689" y="812.5"/><rect fill="#F1F1F1" height="2" style="stroke:#181818;stroke-width:0.5;" width="4" x="679.1689" y="814.5"/><rect fill="#F1F1F1" height="2" style="stroke:#181818;stroke-width:0.5;" width="4" x="679.1689" y="818.5"/><text fill="#000000" font-family="sans-serif" font-size="14" lengthAdjust="spacing" textLength="116.6689" x="559.5" y="840.4951">&#1041;&#1044; (PostgreSQL)</text></g><!--entity MinIO--><g class="entity" data-entity="MinIO" data-source-line="15" data-uid="ent0012" id="entity_MinIO"><rect fill="#F1F1F1" height="62.5938" rx="2.5" ry="2.5" style="stroke:#181818;stroke-width:0.5;" width="187.1572" x="1195.5" y="665.5"/><rect fill="#F1F1F1" height="10" style="stroke:#181818;stroke-width:0.5;" width="15" x="1362.6572" y="670.5"/><rect fill="#F1F1F1" height="2" style="stroke:#181818;stroke-width:0.5;" width="4" x="1360.6572" y="672.5"/><rect fill="#F1F1F1" height="2" style="stroke:#181818;stroke-width:0.5;" width="4" x="1360.6572" y="676.5"/><text fill="#000000" font-family="sans-serif" font-size="14" lengthAdjust="spacing" textLength="147.1572" x="1210.5" y="698.4951">Files Storage Service</text><text fill="#000000" font-family="sans-serif" font-size="14" lengthAdjust="spacing" textLength="73.4248" x="1210.5" y="714.792">(MinIO/S3)</text></g><!--entity Admin--><g class="entity" data-entity="Admin" data-source-line="19" data-uid="ent0014" id="entity_Admin"><ellipse cx="177.0474" cy="14" fill="#F1F1F1" rx="8" ry="8" style="stroke:#181818;stroke-width:0.5;"/><path d="M177.0474,22 L177.0474,49 M164.0474,30 L190.0474,30 M177.0474,49 L164.0474,64 M177.0474,49 L190.0474,64" fill="none" style="stroke:#181818;stroke-width:0.5;"/><text fill="#000000" font-family="sans-serif" font-size="14" lengthAdjust="spacing" textLength="116.0947" x="119" y="78.4951">&#1040;&#1076;&#1084;&#1080;&#1085;&#1080;&#1089;&#1090;&#1088;&#1072;&#1090;&#1086;&#1088;</text></g><!--entity Employee--><g class="entity" data-entity="Employee" data-source-line="20" data-uid="ent0015" id="entity_Employee"><ellipse cx="310.0278" cy="14" fill="#F1F1F1" rx="8" ry="8" style="stroke:#181818;stroke-width:0.5;"/><path d="M310.0278,22 L310.0278,49 M297.0278,30 L323.0278,30 M310.0278,49 L297.0278,64 M310.0278,49 L323.0278,64" fill="none" style="stroke:#181818;stroke-width:0.5;"/><text fill="#000000" font-family="sans-serif" font-size="14" lengthAdjust="spacing" textLength="80.0557" x="270" y="78.4951">&#1057;&#1086;&#1090;&#1088;&#1091;&#1076;&#1085;&#1080;&#1082;</text></g><!--entity Leader--><g class="entity" data-entity="Leader" data-source-line="21" data-uid="ent0016" id="entity_Leader"><ellipse cx="437.1558" cy="14" fill="#F1F1F1" rx="8" ry="8" style="stroke:#181818;stroke-width:0.5;"/><path d="M437.1558,22 L437.1558,49 M424.1558,30 L450.1558,30 M437.1558,49 L424.1558,64 M437.1558,49 L450.1558,64" fill="none" style="stroke:#181818;stroke-width:0.5;"/><text fill="#000000" font-family="sans-serif" font-size="14" lengthAdjust="spacing" textLength="103.3115" x="385.5" y="78.4951">&#1056;&#1091;&#1082;&#1086;&#1074;&#1086;&#1076;&#1080;&#1090;&#1077;&#1083;&#1100;</text></g><!--entity Director--><g class="entity" data-entity="Director" data-source-line="22" data-uid="ent0017" id="entity_Director"><ellipse cx="559.7998" cy="14" fill="#F1F1F1" rx="8" ry="8" style="stroke:#181818;stroke-width:0.5;"/><path d="M559.7998,22 L559.7998,49 M546.7998,30 L572.7998,30 M559.7998,49 L546.7998,64 M559.7998,49 L572.7998,64" fill="none" style="stroke:#181818;stroke-width:0.5;"/><text fill="#000000" font-family="sans-serif" font-size="14" lengthAdjust="spacing" textLength="71.5996" x="524" y="78.4951">&#1044;&#1080;&#1088;&#1077;&#1082;&#1090;&#1086;&#1088;</text></g><!--link Services to MinIO--><g class="link" data-entity-1="Services" data-entity-2="MinIO" data-source-line="17" data-uid="lnk13" id="link_Services_MinIO"><path d="M793.72,499.51 C857.1,508.08 948.73,524.06 1025,551.5 C1087.31,573.92 1097.91,590.71 1156,622.5 C1181.57,636.5 1204.6007,649.194 1228.4807,662.414" fill="none" id="Services-to-MinIO" style="stroke:#181818;stroke-width:1;"/><polygon fill="#181818" points="1233.73,665.32,1227.7934,657.4614,1229.3556,662.8983,1223.9187,664.4605,1233.73,665.32" style="stroke:#181818;stroke-width:1;"/><text fill="#000000" font-family="sans-serif" font-size="13" lengthAdjust="spacing" textLength="167.0132" x="1140" y="587.5669">S3 API (upload/download)</text></g><!--link Admin to UI--><g class="link" data-entity-1="Admin" data-entity-2="UI" data-source-line="25" data-uid="lnk18" id="link_Admin_UI"><path d="M225.7,81.65 C258.69,106.81 296.9889,136.0317 328.0289,159.7017" fill="none" id="Admin-to-UI" style="stroke:#181818;stroke-width:1;"/><polygon fill="#181818" points="332.8,163.34,328.0689,154.7019,328.8241,160.3081,323.2179,161.0633,332.8,163.34" style="stroke:#181818;stroke-width:1;"/></g><!--link Employee to UI--><g class="link" data-entity-1="Employee" data-entity-2="UI" data-source-line="26" data-uid="lnk19" id="link_Employee_UI"><path d="M325.74,81.84 C336.3,106.92 347.729,134.0413 357.679,157.6413" fill="none" id="Employee-to-UI" style="stroke:#181818;stroke-width:1;"/><polygon fill="#181818" points="360.01,163.17,360.1994,153.323,358.0675,158.5627,352.8278,156.4309,360.01,163.17" style="stroke:#181818;stroke-width:1;"/></g><!--link Leader to UI--><g class="link" data-entity-1="Leader" data-entity-2="UI" data-source-line="27" data-uid="lnk20" id="link_Leader_UI"><path d="M421.02,81.84 C410.28,106.92 398.6607,134.0539 388.5607,157.6539" fill="none" id="Leader-to-UI" style="stroke:#181818;stroke-width:1;"/><polygon fill="#181818" points="386.2,163.17,393.4184,156.4697,388.1672,158.5733,386.0637,153.3221,386.2,163.17" style="stroke:#181818;stroke-width:1;"/></g><!--link Director to UI--><g class="link" data-entity-1="Director" data-entity-2="UI" data-source-line="28" data-uid="lnk21" id="link_Director_UI"><path d="M523.94,73.33 C491.57,99.2 448.897,133.3241 415.877,159.7141" fill="none" id="Director-to-UI" style="stroke:#181818;stroke-width:1;"/><polygon fill="#181818" points="411.19,163.46,420.7178,160.9658,415.0958,160.3384,415.7232,154.7164,411.19,163.46" style="stroke:#181818;stroke-width:1;"/></g><!--link UI to API--><g class="link" data-entity-1="UI" data-entity-2="API" data-source-line="31" data-uid="lnk22" id="link_UI_API"><path d="M373,226.63 C373,249.5 373,274.61 373,297.46" fill="none" id="UI-to-API" style="stroke:#181818;stroke-width:1;"/><polygon fill="#181818" points="373,303.46,377,294.46,373,298.46,369,294.46,373,303.46" style="stroke:#181818;stroke-width:1;"/><text fill="#000000" font-family="sans-serif" font-size="13" lengthAdjust="spacing" textLength="113.02" x="374" y="269.5669">HTTP(S) &#1079;&#1072;&#1087;&#1088;&#1086;&#1089;&#1099;</text></g><!--link API to Auth--><g class="link" data-entity-1="API" data-entity-2="Auth" data-source-line="32" data-uid="lnk23" id="link_API_Auth"><path d="M349.69,366.66 C313.76,413.93 248.8714,499.2937 212.9314,546.5637" fill="none" id="API-to-Auth" style="stroke:#181818;stroke-width:1;"/><polygon fill="#181818" points="209.3,551.34,217.9313,546.5966,212.3262,547.3598,211.563,541.7547,209.3,551.34" style="stroke:#181818;stroke-width:1;"/><text fill="#000000" font-family="sans-serif" font-size="13" lengthAdjust="spacing" textLength="121.5576" x="326" y="409.5669">&#1040;&#1091;&#1090;&#1077;&#1085;&#1090;&#1080;&#1092;&#1080;&#1082;&#1072;&#1094;&#1080;&#1103;/</text><text fill="#000000" font-family="sans-serif" font-size="13" lengthAdjust="spacing" textLength="88.7783" x="342.3896" y="424.6997">&#1040;&#1074;&#1090;&#1086;&#1088;&#1080;&#1079;&#1072;&#1094;&#1080;&#1103;</text></g><!--link API to Services--><g class="link" data-entity-1="API" data-entity-2="Services" data-source-line="33" data-uid="lnk24" id="link_API_Services"><path d="M439.73,365.68 C499.82,392.4 582.2576,429.0721 642.9076,456.0421" fill="none" id="API-to-Services" style="stroke:#181818;stroke-width:1;"/><polygon fill="#181818" points="648.39,458.48,641.7917,451.1682,643.8213,456.4484,638.5411,458.478,648.39,458.48" style="stroke:#181818;stroke-width:1;"/><text fill="#000000" font-family="sans-serif" font-size="13" lengthAdjust="spacing" textLength="155.6636" x="576" y="417.0669">&#1042;&#1099;&#1079;&#1086;&#1074;&#1099; &#1073;&#1080;&#1079;&#1085;&#1077;&#1089;-&#1083;&#1086;&#1075;&#1080;&#1082;&#1080;</text></g><!--link Services to DB--><g class="link" data-entity-1="Services" data-entity-2="DB" data-source-line="34" data-uid="lnk25" id="link_Services_DB"><path d="M793.52,496.79 C868,504.21 973.58,520.05 999,551.5 C1016.6,573.28 1002.47,586.72 999,614.5 C989.66,689.32 1012.47,732.47 952,777.5 C913.44,806.21 792.1958,819.1469 707.7258,824.9769" fill="none" id="Services-to-DB" style="stroke:#181818;stroke-width:1;"/><polygon fill="#181818" points="701.74,825.39,710.9941,828.7608,706.7281,825.0457,710.4432,820.7798,701.74,825.39" style="stroke:#181818;stroke-width:1;"/><text fill="#000000" font-family="sans-serif" font-size="13" lengthAdjust="spacing" textLength="122.7827" x="998" y="701.5669">CRUD/&#1090;&#1088;&#1072;&#1085;&#1079;&#1072;&#1082;&#1094;&#1080;&#1080;</text></g><!--link Services to Audit--><g class="link" data-entity-1="Services" data-entity-2="Audit" data-source-line="35" data-uid="lnk26" id="link_Services_Audit"><path d="M666.1,521.62 C655.92,530.06 646.4,540.08 640,551.5 C620.17,586.86 618.2319,628.6874 619.7619,659.4474" fill="none" id="Services-to-Audit" style="stroke:#181818;stroke-width:1;"/><polygon fill="#181818" points="620.06,665.44,623.608,656.2524,619.8116,660.4462,615.6178,656.6498,620.06,665.44" style="stroke:#181818;stroke-width:1;"/><text fill="#000000" font-family="sans-serif" font-size="13" lengthAdjust="spacing" textLength="116.9048" x="641" y="587.5669">&#1047;&#1072;&#1087;&#1080;&#1089;&#1100; &#1076;&#1077;&#1081;&#1089;&#1090;&#1074;&#1080;&#1081;</text></g><!--link Services to Files--><g class="link" data-entity-1="Services" data-entity-2="Files" data-source-line="36" data-uid="lnk27" id="link_Services_Files"><path d="M740.15,521.59 C747.25,531.11 755.02,541.68 762,551.5 C789.56,590.29 816.8608,630.8517 836.4108,660.2917" fill="none" id="Services-to-Files" style="stroke:#181818;stroke-width:1;"/><polygon fill="#181818" points="839.73,665.29,838.0834,655.5798,836.964,661.1247,831.419,660.0053,839.73,665.29" style="stroke:#181818;stroke-width:1;"/><text fill="#000000" font-family="sans-serif" font-size="13" lengthAdjust="spacing" textLength="187.5479" x="803" y="587.5669">&#1047;&#1072;&#1075;&#1088;&#1091;&#1079;&#1082;&#1072;/&#1095;&#1090;&#1077;&#1085;&#1080;&#1077; &#1074;&#1083;&#1086;&#1078;&#1077;&#1085;&#1080;&#1081;</text></g><!--link Services to Reporting--><g class="link" data-entity-1="Services" data-entity-2="Reporting" data-source-line="37" data-uid="lnk28" id="link_Services_Reporting"><path d="M640.43,497.29 C563.11,505.22 450.83,521.59 420,551.5 C389.48,581.11 384.1636,626.58 384.2536,659.43" fill="none" id="Services-to-Reporting" style="stroke:#181818;stroke-width:1;"/><polygon fill="#181818" points="384.27,665.43,388.2453,656.4191,384.2563,660.43,380.2454,656.441,384.27,665.43" style="stroke:#181818;stroke-width:1;"/><text fill="#000000" font-family="sans-serif" font-size="13" lengthAdjust="spacing" textLength="191.0771" x="421" y="587.5669">&#1043;&#1077;&#1085;&#1077;&#1088;&#1072;&#1094;&#1080;&#1103; &#1086;&#1090;&#1095;&#1077;&#1090;&#1086;&#1074;/&#1101;&#1082;&#1089;&#1087;&#1086;&#1088;&#1090;</text></g><!--link Reporting to DB--><g class="link" data-entity-1="Reporting" data-entity-2="DB" data-source-line="38" data-uid="lnk29" id="link_Reporting_DB"><path d="M429.33,728.56 C452.21,744.09 481.06,762.74 508,777.5 C527.7,788.29 544.57,796.3492 564.3,805.0492" fill="none" id="Reporting-to-DB" style="stroke:#181818;stroke-width:1;"/><polygon fill="#181818" points="569.79,807.47,563.1689,800.1788,565.215,805.4527,559.9412,807.4988,569.79,807.47" style="stroke:#181818;stroke-width:1;"/><text fill="#000000" font-family="sans-serif" font-size="13" lengthAdjust="spacing" textLength="105.4727" x="509" y="773.5669">&#1063;&#1090;&#1077;&#1085;&#1080;&#1077; &#1076;&#1072;&#1085;&#1085;&#1099;&#1093;</text></g><!--link Audit to DB--><g class="link" data-entity-1="Audit" data-entity-2="DB" data-source-line="39" data-uid="lnk30" id="link_Audit_DB"><path d="M623,728.83 C623,752.97 623,779.96 623,801.49" fill="none" id="Audit-to-DB" style="stroke:#181818;stroke-width:1;"/><polygon fill="#181818" points="623,807.49,627,798.49,623,802.49,619,798.49,623,807.49" style="stroke:#181818;stroke-width:1;"/><text fill="#000000" font-family="sans-serif" font-size="13" lengthAdjust="spacing" textLength="90.8984" x="624" y="773.5669">&#1047;&#1072;&#1087;&#1080;&#1089;&#1100; &#1083;&#1086;&#1075;&#1086;&#1074;</text></g><!--link Files to DB--><g class="link" data-entity-1="Files" data-entity-2="DB" data-source-line="40" data-uid="lnk31" id="link_Files_DB"><path d="M808.6,728.58 C783.03,743.6 751.56,761.8 723,777.5 C704.65,787.59 689.5035,795.5815 671.8835,804.6615" fill="none" id="Files-to-DB" style="stroke:#181818;stroke-width:1;"/><polygon fill="#181818" points="666.55,807.41,676.3825,806.843,670.9946,805.1196,672.7179,799.7317,666.55,807.41" style="stroke:#181818;stroke-width:1;"/><text fill="#000000" font-family="sans-serif" font-size="13" lengthAdjust="spacing" textLength="189.6299" x="754" y="773.5669">&#1052;&#1077;&#1090;&#1072;&#1080;&#1085;&#1092;&#1086;&#1088;&#1084;&#1072;&#1094;&#1080;&#1103; &#1086; &#1092;&#1072;&#1081;&#1083;&#1072;&#1093;</text></g><!--link Auth to DB--><g class="link" data-entity-1="Auth" data-entity-2="DB" data-source-line="41" data-uid="lnk32" id="link_Auth_DB"><path d="M106.79,597.76 C94.3,603.42 82.92,611.37 75,622.5 C41.5,669.58 37.09,708.9 75,752.5 C105.35,787.42 394.3065,812.9351 538.4765,823.6551" fill="none" id="Auth-to-DB" style="stroke:#181818;stroke-width:1;"/><polygon fill="#181818" points="544.46,824.1,535.7814,819.4436,539.4738,823.7292,535.1882,827.4216,544.46,824.1" style="stroke:#181818;stroke-width:1;"/><text fill="#000000" font-family="sans-serif" font-size="13" lengthAdjust="spacing" textLength="206.9653" x="76" y="701.5669">&#1048;&#1085;&#1092;&#1086;&#1088;&#1084;&#1072;&#1094;&#1080;&#1103; &#1086; &#1087;&#1086;&#1083;&#1100;&#1079;&#1086;&#1074;&#1072;&#1090;&#1077;&#1083;&#1103;&#1093;</text></g><!--SRC=[ZLJFRn9H4BxlN_72mTB4XaDlFPX0QIC9JIjBuy5wME59DxOiMHODCIOjLMj2JMjjr1XZz62y8XHBARJ_mdl_aT_CsrrAquEGmFlnpJSptyoy6Q6-gairKbVu7Qk-6kiM_ZlwKAXJDL0TrTCx-1tXsn7BJZrOoQnQLiqfFNCgKYJ2auHuQGdnwA5y8jPp6zLaSREvBRUay_Iko7XUK0zyfpRxM3XrN1Emi6GNHNgDe7RDTwiLXXa4ZWcIRWIRueuePDAB4vGjImtV3PeX4X22gW-8z8p2rxjpwWAPz70mL1qobFvpjoJh8kyqfM_ieZEs_QvRUX-MBTqMQY3qUpNKkoI7tj4j41HapVC3E3UsyPQDF-azo0Ezu7M0rQNgOZs6zpwHGSSzaf69qeso6uYyLuc2nvP9Vh72B3uRwjVOddCUNTWjkrjIs87dGt1ZIYVrCF4JaLppwa75b_Q3lBdEPgnNrqgqubPpgr7Efb0mPOw8Dhg5DqQdx7b3nJkmnIhEpTqpXs91sFDKAv5irBOyfvmgUo-gj9YrBAS4Nf4kRxjLOace8wWmGd98KEz2QYICFeF4YH2xj0sIffG6_XDN0B5ufCamWkMbKvQ-0Vt0zP0LlpGQGy0BVH11iwulUS7W4ovF7xKDtLepGXrpoxoBwjL53tMm735XNvrJg3WTw4FBv88F2O0UZkCDzs5WyNtiFTo7xj0kBOvZ_3zErtDiJY8lYFl5ubhIdXMClw9U0x9jqIM3Q5mMX3eY5-4S3z19F0VwBV6bDgeeHDSem1CJNiGaSPb1TApRG41Ucei_jm_OOBeniXaOBXRMiobJOXXGi4FoSXDhfW5-FbCwt1O7Obe1TJvjObesDEbnUvnHTYczRrAE5AK0_uO7DpZYyIMUZupfSpUo48BxZby3oZmr_HXO4-CuM_NxkkjJpdcis_gDPHAS0AVoD1B2XMMIci2-iNFgY36gHuKQNOjkyZPqs0LgFZ7zShi9F-qO35DD7ZmQb4CG_0C0]--></g></svg>