<svg xmlns="http://www.w3.org/2000/svg" xmlns:xlink="http://www.w3.org/1999/xlink" contentStyleType="text/css" data-diagram-type="DESCRIPTION" height="818px" preserveAspectRatio="none" style="width:1106px;height:818px;background:#FFFFFF;" version="1.1" viewBox="0 0 1106 818" width="1106px" zoomAndPan="magnify"><defs/><g><!--cluster LAN--><g class="cluster" data-entity="LAN" data-source-line="7" data-uid="ent0003" id="cluster_LAN"><rect fill="none" height="668" rx="2.5" ry="2.5" style="stroke:#181818;stroke-width:1;" width="1093" x="7" y="144.5"/><text fill="#000000" font-family="sans-serif" font-size="14" font-weight="bold" lengthAdjust="spacing" textLength="256.5186" x="425.2407" y="159.4951">&#1050;&#1086;&#1088;&#1087;&#1086;&#1088;&#1072;&#1090;&#1080;&#1074;&#1085;&#1072;&#1103; &#1089;&#1077;&#1090;&#1100; (LAN, VPN)</text></g><!--cluster AppSrv--><g class="cluster" data-entity="AppSrv" data-source-line="8" data-uid="ent0004" id="cluster_AppSrv"><rect fill="none" height="516" rx="2.5" ry="2.5" style="stroke:#181818;stroke-width:1;" width="798" x="31" y="187.5"/><text fill="#000000" font-family="sans-serif" font-size="14" font-weight="bold" lengthAdjust="spacing" textLength="239.7295" x="310.1353" y="202.4951">&#1057;&#1077;&#1088;&#1074;&#1077;&#1088; &#1087;&#1088;&#1080;&#1083;&#1086;&#1078;&#1077;&#1085;&#1080;&#1103; FastMBO</text><text fill="#000000" font-family="sans-serif" font-size="14" font-weight="bold" lengthAdjust="spacing" textLength="179.4707" x="340.2646" y="218.792">(Spring Boot &#1084;&#1086;&#1085;&#1086;&#1083;&#1080;&#1090;)</text></g><!--entity DB--><g class="entity" data-entity="DB" data-source-line="17" data-uid="ent0012" id="entity_DB"><rect fill="#F1F1F1" height="46.2969" rx="2.5" ry="2.5" style="stroke:#181818;stroke-width:0.5;" width="145.7451" x="704" y="750.5"/><rect fill="#F1F1F1" height="10" style="stroke:#181818;stroke-width:0.5;" width="15" x="829.7451" y="755.5"/><rect fill="#F1F1F1" height="2" style="stroke:#181818;stroke-width:0.5;" width="4" x="827.7451" y="757.5"/><rect fill="#F1F1F1" height="2" style="stroke:#181818;stroke-width:0.5;" width="4" x="827.7451" y="761.5"/><text fill="#000000" font-family="sans-serif" font-size="14" lengthAdjust="spacing" textLength="105.7451" x="719" y="783.4951">PostgreSQL &#1041;&#1044;</text></g><!--entity FileStore--><g class="entity" data-entity="FileStore" data-source-line="18" data-uid="ent0013" id="entity_FileStore"><rect fill="#F1F1F1" height="46.2969" rx="2.5" ry="2.5" style="stroke:#181818;stroke-width:0.5;" width="200.9727" x="845.5" y="641.5"/><rect fill="#F1F1F1" height="10" style="stroke:#181818;stroke-width:0.5;" width="15" x="1026.4727" y="646.5"/><rect fill="#F1F1F1" height="2" style="stroke:#181818;stroke-width:0.5;" width="4" x="1024.4727" y="648.5"/><rect fill="#F1F1F1" height="2" style="stroke:#181818;stroke-width:0.5;" width="4" x="1024.4727" y="652.5"/><text fill="#000000" font-family="sans-serif" font-size="14" lengthAdjust="spacing" textLength="160.9727" x="860.5" y="674.4951">&#1060;&#1072;&#1081;&#1083;&#1086;&#1074;&#1086;&#1077; &#1093;&#1088;&#1072;&#1085;&#1080;&#1083;&#1080;&#1097;&#1077;</text></g><!--entity WebUI--><g class="entity" data-entity="WebUI" data-source-line="9" data-uid="ent0005" id="entity_WebUI"><rect fill="#F1F1F1" height="62.5938" rx="2.5" ry="2.5" style="stroke:#181818;stroke-width:0.5;" width="202.0254" x="332" y="238.5"/><rect fill="#F1F1F1" height="10" style="stroke:#181818;stroke-width:0.5;" width="15" x="514.0254" y="243.5"/><rect fill="#F1F1F1" height="2" style="stroke:#181818;stroke-width:0.5;" width="4" x="512.0254" y="245.5"/><rect fill="#F1F1F1" height="2" style="stroke:#181818;stroke-width:0.5;" width="4" x="512.0254" y="249.5"/><text fill="#000000" font-family="sans-serif" font-size="14" lengthAdjust="spacing" textLength="117.6807" x="347" y="271.4951">Web-&#1080;&#1085;&#1090;&#1077;&#1088;&#1092;&#1077;&#1081;&#1089;</text><text fill="#000000" font-family="sans-serif" font-size="14" lengthAdjust="spacing" textLength="162.0254" x="347" y="287.792">(Thymeleaf, Bootstrap)</text></g><!--entity RestAPI--><g class="entity" data-entity="RestAPI" data-source-line="10" data-uid="ent0006" id="entity_RestAPI"><rect fill="#F1F1F1" height="62.5938" rx="2.5" ry="2.5" style="stroke:#181818;stroke-width:0.5;" width="200.4258" x="386" y="362.5"/><rect fill="#F1F1F1" height="10" style="stroke:#181818;stroke-width:0.5;" width="15" x="566.4258" y="367.5"/><rect fill="#F1F1F1" height="2" style="stroke:#181818;stroke-width:0.5;" width="4" x="564.4258" y="369.5"/><rect fill="#F1F1F1" height="2" style="stroke:#181818;stroke-width:0.5;" width="4" x="564.4258" y="373.5"/><text fill="#000000" font-family="sans-serif" font-size="14" lengthAdjust="spacing" textLength="62.6104" x="401" y="395.4951">REST API</text><text fill="#000000" font-family="sans-serif" font-size="14" lengthAdjust="spacing" textLength="160.4258" x="401" y="411.792">(Spring MVC, OpenAPI)</text></g><!--entity Auth--><g class="entity" data-entity="Auth" data-source-line="11" data-uid="ent0007" id="entity_Auth"><rect fill="#F1F1F1" height="62.5938" rx="2.5" ry="2.5" style="stroke:#181818;stroke-width:0.5;" width="226.1289" x="373" y="486.5"/><rect fill="#F1F1F1" height="10" style="stroke:#181818;stroke-width:0.5;" width="15" x="579.1289" y="491.5"/><rect fill="#F1F1F1" height="2" style="stroke:#181818;stroke-width:0.5;" width="4" x="577.1289" y="493.5"/><rect fill="#F1F1F1" height="2" style="stroke:#181818;stroke-width:0.5;" width="4" x="577.1289" y="497.5"/><text fill="#000000" font-family="sans-serif" font-size="14" lengthAdjust="spacing" textLength="186.1289" x="388" y="519.4951">&#1052;&#1086;&#1076;&#1091;&#1083;&#1100; &#1072;&#1091;&#1090;&#1077;&#1085;&#1090;&#1080;&#1092;&#1080;&#1082;&#1072;&#1094;&#1080;&#1080;</text><text fill="#000000" font-family="sans-serif" font-size="14" lengthAdjust="spacing" textLength="118.043" x="388" y="535.792">(Spring Security)</text></g><!--entity BizLogic--><g class="entity" data-entity="BizLogic" data-source-line="12" data-uid="ent0008" id="entity_BizLogic"><rect fill="#F1F1F1" height="46.2969" rx="2.5" ry="2.5" style="stroke:#181818;stroke-width:0.5;" width="147.666" x="655" y="495"/><rect fill="#F1F1F1" height="10" style="stroke:#181818;stroke-width:0.5;" width="15" x="782.666" y="500"/><rect fill="#F1F1F1" height="2" style="stroke:#181818;stroke-width:0.5;" width="4" x="780.666" y="502"/><rect fill="#F1F1F1" height="2" style="stroke:#181818;stroke-width:0.5;" width="4" x="780.666" y="506"/><text fill="#000000" font-family="sans-serif" font-size="14" lengthAdjust="spacing" textLength="107.666" x="670" y="527.9951">&#1041;&#1080;&#1079;&#1085;&#1077;&#1089;-&#1083;&#1086;&#1075;&#1080;&#1082;&#1072;</text></g><!--entity Reporting--><g class="entity" data-entity="Reporting" data-source-line="13" data-uid="ent0009" id="entity_Reporting"><rect fill="#F1F1F1" height="46.2969" rx="2.5" ry="2.5" style="stroke:#181818;stroke-width:0.5;" width="244.0117" x="569" y="247"/><rect fill="#F1F1F1" height="10" style="stroke:#181818;stroke-width:0.5;" width="15" x="793.0117" y="252"/><rect fill="#F1F1F1" height="2" style="stroke:#181818;stroke-width:0.5;" width="4" x="791.0117" y="254"/><rect fill="#F1F1F1" height="2" style="stroke:#181818;stroke-width:0.5;" width="4" x="791.0117" y="258"/><text fill="#000000" font-family="sans-serif" font-size="14" lengthAdjust="spacing" textLength="204.0117" x="584" y="279.9951">&#1052;&#1086;&#1076;&#1091;&#1083;&#1100; &#1086;&#1090;&#1095;&#1105;&#1090;&#1086;&#1074; &#1080; &#1101;&#1082;&#1089;&#1087;&#1086;&#1088;&#1090;&#1072;</text></g><!--entity Attachments--><g class="entity" data-entity="Attachments" data-source-line="14" data-uid="ent0010" id="entity_Attachments"><rect fill="#F1F1F1" height="46.2969" rx="2.5" ry="2.5" style="stroke:#181818;stroke-width:0.5;" width="249.2412" x="47.5" y="247"/><rect fill="#F1F1F1" height="10" style="stroke:#181818;stroke-width:0.5;" width="15" x="276.7412" y="252"/><rect fill="#F1F1F1" height="2" style="stroke:#181818;stroke-width:0.5;" width="4" x="274.7412" y="254"/><rect fill="#F1F1F1" height="2" style="stroke:#181818;stroke-width:0.5;" width="4" x="274.7412" y="258"/><text fill="#000000" font-family="sans-serif" font-size="14" lengthAdjust="spacing" textLength="209.2412" x="62.5" y="279.9951">&#1052;&#1086;&#1076;&#1091;&#1083;&#1100; &#1093;&#1088;&#1072;&#1085;&#1077;&#1085;&#1080;&#1103; &#1074;&#1083;&#1086;&#1078;&#1077;&#1085;&#1080;&#1081;</text></g><!--entity Audit--><g class="entity" data-entity="Audit" data-source-line="15" data-uid="ent0011" id="entity_Audit"><rect fill="#F1F1F1" height="46.2969" rx="2.5" ry="2.5" style="stroke:#181818;stroke-width:0.5;" width="297.1543" x="409.5" y="641.5"/><rect fill="#F1F1F1" height="10" style="stroke:#181818;stroke-width:0.5;" width="15" x="686.6543" y="646.5"/><rect fill="#F1F1F1" height="2" style="stroke:#181818;stroke-width:0.5;" width="4" x="684.6543" y="648.5"/><rect fill="#F1F1F1" height="2" style="stroke:#181818;stroke-width:0.5;" width="4" x="684.6543" y="652.5"/><text fill="#000000" font-family="sans-serif" font-size="14" lengthAdjust="spacing" textLength="257.1543" x="424.5" y="674.4951">&#1052;&#1086;&#1076;&#1091;&#1083;&#1100; &#1078;&#1091;&#1088;&#1085;&#1072;&#1083;&#1080;&#1088;&#1086;&#1074;&#1072;&#1085;&#1080;&#1103; &#1080; &#1072;&#1091;&#1076;&#1080;&#1090;&#1072;</text></g><!--entity User--><g class="entity" data-entity="User" data-source-line="5" data-uid="ent0002" id="entity_User"><ellipse cx="433.0498" cy="14" fill="#F1F1F1" rx="8" ry="8" style="stroke:#181818;stroke-width:0.5;"/><path d="M433.0498,22 L433.0498,49 M420.0498,30 L446.0498,30 M433.0498,49 L420.0498,64 M433.0498,49 L446.0498,64" fill="none" style="stroke:#181818;stroke-width:0.5;"/><text fill="#000000" font-family="sans-serif" font-size="14" lengthAdjust="spacing" textLength="103.0996" x="381.5" y="78.4951">&#1055;&#1086;&#1083;&#1100;&#1079;&#1086;&#1074;&#1072;&#1090;&#1077;&#1083;&#1100;</text></g><!--link User to WebUI--><g class="link" data-entity-1="User" data-entity-2="WebUI" data-source-line="21" data-uid="lnk14" id="link_User_WebUI"><path d="M433,81.57 C433,125.41 433,191.56 433,232.37" fill="none" id="User-to-WebUI" style="stroke:#181818;stroke-width:1;"/><polygon fill="#181818" points="433,238.37,437,229.37,433,233.37,429,229.37,433,238.37" style="stroke:#181818;stroke-width:1;"/><text fill="#000000" font-family="sans-serif" font-size="13" lengthAdjust="spacing" textLength="79.625" x="434" y="124.5669">HTTP/HTTPS</text></g><!--link WebUI to RestAPI--><g class="link" data-entity-1="WebUI" data-entity-2="RestAPI" data-source-line="22" data-uid="lnk15" id="link_WebUI_RestAPI"><path d="M439.08,301.62 C441.57,311.67 444.86,322.75 449,332.5 C453.28,342.59 455.9068,347.8654 461.6268,357.1254" fill="none" id="WebUI-to-RestAPI" style="stroke:#181818;stroke-width:1;"/><polygon fill="#181818" points="464.78,362.23,463.4533,352.4709,462.1523,357.9761,456.6471,356.6752,464.78,362.23" style="stroke:#181818;stroke-width:1;"/></g><!--link RestAPI to Auth--><g class="link" data-entity-1="RestAPI" data-entity-2="Auth" data-source-line="23" data-uid="lnk16" id="link_RestAPI_Auth"><path d="M486,425.79 C486,444.28 486,461.73 486,480.22" fill="none" id="RestAPI-to-Auth" style="stroke:#181818;stroke-width:1;"/><polygon fill="#181818" points="486,486.22,490,477.22,486,481.22,482,477.22,486,486.22" style="stroke:#181818;stroke-width:1;"/></g><!--link RestAPI to BizLogic--><g class="link" data-entity-1="RestAPI" data-entity-2="BizLogic" data-source-line="24" data-uid="lnk17" id="link_RestAPI_BizLogic"><path d="M547.01,425.63 C589.88,447.16 640.8979,472.7678 679.4779,492.1378" fill="none" id="RestAPI-to-BizLogic" style="stroke:#181818;stroke-width:1;"/><polygon fill="#181818" points="684.84,494.83,678.5916,487.217,680.3716,492.5865,675.0021,494.3665,684.84,494.83" style="stroke:#181818;stroke-width:1;"/></g><!--link BizLogic to DB--><g class="link" data-entity-1="BizLogic" data-entity-2="DB" data-source-line="25" data-uid="lnk18" id="link_BizLogic_DB"><path d="M733.18,541.05 C742.25,589 762.5838,696.3647 771.6838,744.4247" fill="none" id="BizLogic-to-DB" style="stroke:#181818;stroke-width:1;"/><polygon fill="#181818" points="772.8,750.32,775.0558,740.733,771.8698,745.4073,767.1955,742.2213,772.8,750.32" style="stroke:#181818;stroke-width:1;"/><text fill="#000000" font-family="sans-serif" font-size="13" lengthAdjust="spacing" textLength="31.8398" x="766" y="669.0669">JDBC</text></g><!--link BizLogic to FileStore--><g class="link" data-entity-1="BizLogic" data-entity-2="FileStore" data-source-line="26" data-uid="lnk19" id="link_BizLogic_FileStore"><path d="M753.45,541.14 C775.99,560.94 810.87,590.06 844,611.5 C860.85,622.41 874.9129,630.1378 892.2629,638.7278" fill="none" id="BizLogic-to-FileStore" style="stroke:#181818;stroke-width:1;"/><polygon fill="#181818" points="897.64,641.39,891.3492,633.812,893.1591,639.1715,887.7996,640.9814,897.64,641.39" style="stroke:#181818;stroke-width:1;"/><text fill="#000000" font-family="sans-serif" font-size="13" lengthAdjust="spacing" textLength="228.5093" x="845" y="592.5669">&#1095;&#1090;&#1077;&#1085;&#1080;&#1077;/&#1079;&#1072;&#1087;&#1080;&#1089;&#1100; &#1092;&#1072;&#1081;&#1083;&#1086;&#1074; (&#1083;&#1086;&#1082;&#1072;&#1083;&#1100;&#1085;&#1086;</text><text fill="#000000" font-family="sans-serif" font-size="13" lengthAdjust="spacing" textLength="118.606" x="899.9517" y="607.6997">&#1080;&#1083;&#1080; &#1095;&#1077;&#1088;&#1077;&#1079; S3 API)</text></g><!--link BizLogic to Audit--><g class="link" data-entity-1="BizLogic" data-entity-2="Audit" data-source-line="27" data-uid="lnk20" id="link_BizLogic_Audit"><path d="M700.57,541.07 C686.17,552.38 668.5,566.49 653,579.5 C628.55,600.02 605.776,620.2221 586.756,637.3721" fill="none" id="BizLogic-to-Audit" style="stroke:#181818;stroke-width:1;"/><polygon fill="#181818" points="582.3,641.39,591.6627,638.3338,586.0134,638.0417,586.3054,632.3924,582.3,641.39" style="stroke:#181818;stroke-width:1;"/></g><!--link Reporting to DB--><g class="link" data-entity-1="Reporting" data-entity-2="DB" data-source-line="28" data-uid="lnk21" id="link_Reporting_DB"><path d="M813.15,285.27 C928.2,302.21 1083,335.67 1083,393 C1083,393 1083,393 1083,665.5 C1083,687.62 1081,697.35 1064,711.5 C1032.05,738.1 930.0944,754.8413 856.0944,764.0213" fill="none" id="Reporting-to-DB" style="stroke:#181818;stroke-width:1;"/><polygon fill="#181818" points="850.14,764.76,859.564,767.6216,855.102,764.1444,858.5791,759.6824,850.14,764.76" style="stroke:#181818;stroke-width:1;"/></g><!--link Audit to DB--><g class="link" data-entity-1="Audit" data-entity-2="DB" data-source-line="29" data-uid="lnk22" id="link_Audit_DB"><path d="M603.11,687.54 C640.8,705.96 688.8791,729.446 726.5591,747.856" fill="none" id="Audit-to-DB" style="stroke:#181818;stroke-width:1;"/><polygon fill="#181818" points="731.95,750.49,725.6195,742.9451,727.4575,748.295,722.1076,750.133,731.95,750.49" style="stroke:#181818;stroke-width:1;"/></g><!--SRC=[RLFBRjD05DtxAoxPa4Y9ke0L2wIy2aLf6kAqB5eM9fqabX8xiYT81LLAqXQ4L8GgiK9828aFY4hTE2b9Vs7cZpWpTXwLil0yxjmvzymvru-EMSDs65MB-Lgs_A9K98_LkUKqsymm7bF-AULTXrj8yQXWMqtFwb33zMZRylbkRiymh3h7Tj_7kULJGlmISt4dByKOyxKOoQ48r3vX6AiI2V53p6LVtEjHvOJ8dM7rZUH0178eBobPofRJT50ffn8A6JlwQ12je_n6QXytCPAunp8KToXxYv8p4G8iPdda9CskPpjDohak9_4FIJF54qd323xRxPhUUrs1wF0DUvS1s4onbtrv3i29702crZhfi3Qp6caDvNFFwgRUAW1SsT-9RbUBPesobPrLsTs3V9hskin1D4glCfzZ4rqGFq7cHfufeGWgd6dLLFKGjKCnHUmJvd25QB9wpxFvIOIMxV5M37M5l35U5yX1HglnDmBGUJdxGybjslLDPUTG_REyGb4OHo8a-LLCuOOs2T5HpBlhUXmCDa382-McgXtB3slM_12JY2ldLhtLOGxtDz6unUlxgXUqE_seYnPueLP7t2ZVOaBPth7D0NIAxx3Y-hpfCVDrYI34TvrGoAaJyGSe4qtd6b-m8XlgGbz4eBEtxJOpqT7CE3KCtTMPpFF8N7f6BskrofOQJ2CAgSE5bV6iOzgGzS1I-SL2HmivWBugvF8FmqiIE8KdmrY_O0lEZc18A0TAxlFLaoYfvwcI3JyVcll8YLu60FsN169CvXFLbgc7nI81bxx6l0mTNcp-0m00]--></g></svg>