<svg xmlns="http://www.w3.org/2000/svg" xmlns:xlink="http://www.w3.org/1999/xlink" contentStyleType="text/css" data-diagram-type="CLASS" height="494px" preserveAspectRatio="none" style="width:1139px;height:494px;background:#FFFFFF;" version="1.1" viewBox="0 0 1139 494" width="1139px" zoomAndPan="magnify"><defs/><g><!--class users--><g class="entity" data-entity="users" data-source-line="3" data-uid="ent0002" id="entity_users"><rect fill="#F1F1F1" height="48" rx="2.5" ry="2.5" style="stroke:#181818;stroke-width:0.5;" width="69.8301" x="529.92" y="7"/><ellipse cx="544.92" cy="23" fill="#ADD1B2" rx="11" ry="11" style="stroke:#181818;stroke-width:1;"/><path d="M547.8888,28.6406 Q547.3106,28.9375 546.67,29.0781 Q546.0294,29.2344 545.3263,29.2344 Q542.8263,29.2344 541.4981,27.5938 Q540.1856,25.9375 540.1856,22.8125 Q540.1856,19.6875 541.4981,18.0313 Q542.8263,16.375 545.3263,16.375 Q546.0294,16.375 546.67,16.5313 Q547.3263,16.6875 547.8888,16.9844 L547.8888,19.7031 Q547.2638,19.125 546.67,18.8594 Q546.0763,18.5781 545.4513,18.5781 Q544.1075,18.5781 543.42,19.6563 Q542.7325,20.7188 542.7325,22.8125 Q542.7325,24.9063 543.42,25.9844 Q544.1075,27.0469 545.4513,27.0469 Q546.0763,27.0469 546.67,26.7813 Q547.2638,26.5 547.8888,25.9219 L547.8888,28.6406 Z " fill="#000000"/><text fill="#000000" font-family="sans-serif" font-size="14" lengthAdjust="spacing" textLength="37.8301" x="558.92" y="27.8467">users</text><line style="stroke:#181818;stroke-width:0.5;" x1="530.92" x2="598.7501" y1="39" y2="39"/><line style="stroke:#181818;stroke-width:0.5;" x1="530.92" x2="598.7501" y1="47" y2="47"/></g><!--class periods--><g class="entity" data-entity="periods" data-source-line="3" data-uid="ent0003" id="entity_periods"><rect fill="#F1F1F1" height="48" rx="2.5" ry="2.5" style="stroke:#181818;stroke-width:0.5;" width="83.8916" x="440.92" y="115"/><ellipse cx="455.92" cy="131" fill="#ADD1B2" rx="11" ry="11" style="stroke:#181818;stroke-width:1;"/><path d="M458.8888,136.6406 Q458.3106,136.9375 457.67,137.0781 Q457.0294,137.2344 456.3263,137.2344 Q453.8263,137.2344 452.4981,135.5938 Q451.1856,133.9375 451.1856,130.8125 Q451.1856,127.6875 452.4981,126.0313 Q453.8263,124.375 456.3263,124.375 Q457.0294,124.375 457.67,124.5313 Q458.3263,124.6875 458.8888,124.9844 L458.8888,127.7031 Q458.2638,127.125 457.67,126.8594 Q457.0763,126.5781 456.4513,126.5781 Q455.1075,126.5781 454.42,127.6563 Q453.7325,128.7188 453.7325,130.8125 Q453.7325,132.9063 454.42,133.9844 Q455.1075,135.0469 456.4513,135.0469 Q457.0763,135.0469 457.67,134.7813 Q458.2638,134.5 458.8888,133.9219 L458.8888,136.6406 Z " fill="#000000"/><text fill="#000000" font-family="sans-serif" font-size="14" lengthAdjust="spacing" textLength="51.8916" x="469.92" y="135.8467">periods</text><line style="stroke:#181818;stroke-width:0.5;" x1="441.92" x2="523.8116" y1="147" y2="147"/><line style="stroke:#181818;stroke-width:0.5;" x1="441.92" x2="523.8116" y1="155" y2="155"/></g><!--class groups--><g class="entity" data-entity="groups" data-source-line="4" data-uid="ent0005" id="entity_groups"><rect fill="#F1F1F1" height="48" rx="2.5" ry="2.5" style="stroke:#181818;stroke-width:0.5;" width="80.2617" x="921.92" y="115"/><ellipse cx="936.92" cy="131" fill="#ADD1B2" rx="11" ry="11" style="stroke:#181818;stroke-width:1;"/><path d="M939.8888,136.6406 Q939.3106,136.9375 938.67,137.0781 Q938.0294,137.2344 937.3263,137.2344 Q934.8263,137.2344 933.4981,135.5938 Q932.1856,133.9375 932.1856,130.8125 Q932.1856,127.6875 933.4981,126.0313 Q934.8263,124.375 937.3263,124.375 Q938.0294,124.375 938.67,124.5313 Q939.3263,124.6875 939.8888,124.9844 L939.8888,127.7031 Q939.2638,127.125 938.67,126.8594 Q938.0763,126.5781 937.4513,126.5781 Q936.1075,126.5781 935.42,127.6563 Q934.7325,128.7188 934.7325,130.8125 Q934.7325,132.9063 935.42,133.9844 Q936.1075,135.0469 937.4513,135.0469 Q938.0763,135.0469 938.67,134.7813 Q939.2638,134.5 939.8888,133.9219 L939.8888,136.6406 Z " fill="#000000"/><text fill="#000000" font-family="sans-serif" font-size="14" lengthAdjust="spacing" textLength="48.2617" x="950.92" y="135.8467">groups</text><line style="stroke:#181818;stroke-width:0.5;" x1="922.92" x2="1001.1817" y1="147" y2="147"/><line style="stroke:#181818;stroke-width:0.5;" x1="922.92" x2="1001.1817" y1="155" y2="155"/></g><!--class metric_types--><g class="entity" data-entity="metric_types" data-source-line="5" data-uid="ent0007" id="entity_metric_types"><rect fill="#F1F1F1" height="48" rx="2.5" ry="2.5" style="stroke:#181818;stroke-width:0.5;" width="122.6514" x="31.42" y="331"/><ellipse cx="46.42" cy="347" fill="#ADD1B2" rx="11" ry="11" style="stroke:#181818;stroke-width:1;"/><path d="M49.3888,352.6406 Q48.8106,352.9375 48.17,353.0781 Q47.5294,353.2344 46.8263,353.2344 Q44.3263,353.2344 42.9981,351.5938 Q41.6856,349.9375 41.6856,346.8125 Q41.6856,343.6875 42.9981,342.0313 Q44.3263,340.375 46.8263,340.375 Q47.5294,340.375 48.17,340.5313 Q48.8263,340.6875 49.3888,340.9844 L49.3888,343.7031 Q48.7638,343.125 48.17,342.8594 Q47.5763,342.5781 46.9513,342.5781 Q45.6075,342.5781 44.92,343.6563 Q44.2325,344.7188 44.2325,346.8125 Q44.2325,348.9063 44.92,349.9844 Q45.6075,351.0469 46.9513,351.0469 Q47.5763,351.0469 48.17,350.7813 Q48.7638,350.5 49.3888,349.9219 L49.3888,352.6406 Z " fill="#000000"/><text fill="#000000" font-family="sans-serif" font-size="14" lengthAdjust="spacing" textLength="90.6514" x="60.42" y="351.8467">metric_types</text><line style="stroke:#181818;stroke-width:0.5;" x1="32.42" x2="153.0714" y1="363" y2="363"/><line style="stroke:#181818;stroke-width:0.5;" x1="32.42" x2="153.0714" y1="371" y2="371"/></g><!--class metric_facts--><g class="entity" data-entity="metric_facts" data-source-line="6" data-uid="ent0009" id="entity_metric_facts"><rect fill="#F1F1F1" height="48" rx="2.5" ry="2.5" style="stroke:#181818;stroke-width:0.5;" width="118.0713" x="33.92" y="439"/><ellipse cx="48.92" cy="455" fill="#ADD1B2" rx="11" ry="11" style="stroke:#181818;stroke-width:1;"/><path d="M51.8888,460.6406 Q51.3106,460.9375 50.67,461.0781 Q50.0294,461.2344 49.3263,461.2344 Q46.8263,461.2344 45.4981,459.5938 Q44.1856,457.9375 44.1856,454.8125 Q44.1856,451.6875 45.4981,450.0313 Q46.8263,448.375 49.3263,448.375 Q50.0294,448.375 50.67,448.5313 Q51.3263,448.6875 51.8888,448.9844 L51.8888,451.7031 Q51.2638,451.125 50.67,450.8594 Q50.0763,450.5781 49.4513,450.5781 Q48.1075,450.5781 47.42,451.6563 Q46.7325,452.7188 46.7325,454.8125 Q46.7325,456.9063 47.42,457.9844 Q48.1075,459.0469 49.4513,459.0469 Q50.0763,459.0469 50.67,458.7813 Q51.2638,458.5 51.8888,457.9219 L51.8888,460.6406 Z " fill="#000000"/><text fill="#000000" font-family="sans-serif" font-size="14" lengthAdjust="spacing" textLength="86.0713" x="62.92" y="459.8467">metric_facts</text><line style="stroke:#181818;stroke-width:0.5;" x1="34.92" x2="150.9913" y1="471" y2="471"/><line style="stroke:#181818;stroke-width:0.5;" x1="34.92" x2="150.9913" y1="479" y2="479"/></g><!--class achievement_types--><g class="entity" data-entity="achievement_types" data-source-line="7" data-uid="ent0011" id="entity_achievement_types"><rect fill="#F1F1F1" height="48" rx="2.5" ry="2.5" style="stroke:#181818;stroke-width:0.5;" width="168.7324" x="189.42" y="331"/><ellipse cx="204.42" cy="347" fill="#ADD1B2" rx="11" ry="11" style="stroke:#181818;stroke-width:1;"/><path d="M207.3888,352.6406 Q206.8106,352.9375 206.17,353.0781 Q205.5294,353.2344 204.8263,353.2344 Q202.3263,353.2344 200.9981,351.5938 Q199.6856,349.9375 199.6856,346.8125 Q199.6856,343.6875 200.9981,342.0313 Q202.3263,340.375 204.8263,340.375 Q205.5294,340.375 206.17,340.5313 Q206.8263,340.6875 207.3888,340.9844 L207.3888,343.7031 Q206.7638,343.125 206.17,342.8594 Q205.5763,342.5781 204.9513,342.5781 Q203.6075,342.5781 202.92,343.6563 Q202.2325,344.7188 202.2325,346.8125 Q202.2325,348.9063 202.92,349.9844 Q203.6075,351.0469 204.9513,351.0469 Q205.5763,351.0469 206.17,350.7813 Q206.7638,350.5 207.3888,349.9219 L207.3888,352.6406 Z " fill="#000000"/><text fill="#000000" font-family="sans-serif" font-size="14" lengthAdjust="spacing" textLength="136.7324" x="218.42" y="351.8467">achievement_types</text><line style="stroke:#181818;stroke-width:0.5;" x1="190.42" x2="357.1524" y1="363" y2="363"/><line style="stroke:#181818;stroke-width:0.5;" x1="190.42" x2="357.1524" y1="371" y2="371"/></g><!--class achievement_facts--><g class="entity" data-entity="achievement_facts" data-source-line="8" data-uid="ent0013" id="entity_achievement_facts"><rect fill="#F1F1F1" height="48" rx="2.5" ry="2.5" style="stroke:#181818;stroke-width:0.5;" width="164.1523" x="400.92" y="439"/><ellipse cx="415.92" cy="455" fill="#ADD1B2" rx="11" ry="11" style="stroke:#181818;stroke-width:1;"/><path d="M418.8888,460.6406 Q418.3106,460.9375 417.67,461.0781 Q417.0294,461.2344 416.3263,461.2344 Q413.8263,461.2344 412.4981,459.5938 Q411.1856,457.9375 411.1856,454.8125 Q411.1856,451.6875 412.4981,450.0313 Q413.8263,448.375 416.3263,448.375 Q417.0294,448.375 417.67,448.5313 Q418.3263,448.6875 418.8888,448.9844 L418.8888,451.7031 Q418.2638,451.125 417.67,450.8594 Q417.0763,450.5781 416.4513,450.5781 Q415.1075,450.5781 414.42,451.6563 Q413.7325,452.7188 413.7325,454.8125 Q413.7325,456.9063 414.42,457.9844 Q415.1075,459.0469 416.4513,459.0469 Q417.0763,459.0469 417.67,458.7813 Q418.2638,458.5 418.8888,457.9219 L418.8888,460.6406 Z " fill="#000000"/><text fill="#000000" font-family="sans-serif" font-size="14" lengthAdjust="spacing" textLength="132.1523" x="429.92" y="459.8467">achievement_facts</text><line style="stroke:#181818;stroke-width:0.5;" x1="401.92" x2="564.0723" y1="471" y2="471"/><line style="stroke:#181818;stroke-width:0.5;" x1="401.92" x2="564.0723" y1="479" y2="479"/></g><!--class audit_log--><g class="entity" data-entity="audit_log" data-source-line="9" data-uid="ent0015" id="entity_audit_log"><rect fill="#F1F1F1" height="48" rx="2.5" ry="2.5" style="stroke:#181818;stroke-width:0.5;" width="96.0596" x="1036.92" y="115"/><ellipse cx="1051.92" cy="131" fill="#ADD1B2" rx="11" ry="11" style="stroke:#181818;stroke-width:1;"/><path d="M1054.8888,136.6406 Q1054.3106,136.9375 1053.67,137.0781 Q1053.0294,137.2344 1052.3263,137.2344 Q1049.8263,137.2344 1048.4981,135.5938 Q1047.1856,133.9375 1047.1856,130.8125 Q1047.1856,127.6875 1048.4981,126.0313 Q1049.8263,124.375 1052.3263,124.375 Q1053.0294,124.375 1053.67,124.5313 Q1054.3263,124.6875 1054.8888,124.9844 L1054.8888,127.7031 Q1054.2638,127.125 1053.67,126.8594 Q1053.0763,126.5781 1052.4513,126.5781 Q1051.1075,126.5781 1050.42,127.6563 Q1049.7325,128.7188 1049.7325,130.8125 Q1049.7325,132.9063 1050.42,133.9844 Q1051.1075,135.0469 1052.4513,135.0469 Q1053.0763,135.0469 1053.67,134.7813 Q1054.2638,134.5 1054.8888,133.9219 L1054.8888,136.6406 Z " fill="#000000"/><text fill="#000000" font-family="sans-serif" font-size="14" lengthAdjust="spacing" textLength="64.0596" x="1065.92" y="135.8467">audit_log</text><line style="stroke:#181818;stroke-width:0.5;" x1="1037.92" x2="1131.9796" y1="147" y2="147"/><line style="stroke:#181818;stroke-width:0.5;" x1="1037.92" x2="1131.9796" y1="155" y2="155"/></g><!--class manual_point_adjustments--><g class="entity" data-entity="manual_point_adjustments" data-source-line="10" data-uid="ent0017" id="entity_manual_point_adjustments"><rect fill="#F1F1F1" height="48" rx="2.5" ry="2.5" style="stroke:#181818;stroke-width:0.5;" width="221.0547" x="536.42" y="223"/><ellipse cx="551.42" cy="239" fill="#ADD1B2" rx="11" ry="11" style="stroke:#181818;stroke-width:1;"/><path d="M554.3888,244.6406 Q553.8106,244.9375 553.17,245.0781 Q552.5294,245.2344 551.8263,245.2344 Q549.3263,245.2344 547.9981,243.5938 Q546.6856,241.9375 546.6856,238.8125 Q546.6856,235.6875 547.9981,234.0313 Q549.3263,232.375 551.8263,232.375 Q552.5294,232.375 553.17,232.5313 Q553.8263,232.6875 554.3888,232.9844 L554.3888,235.7031 Q553.7638,235.125 553.17,234.8594 Q552.5763,234.5781 551.9513,234.5781 Q550.6075,234.5781 549.92,235.6563 Q549.2325,236.7188 549.2325,238.8125 Q549.2325,240.9063 549.92,241.9844 Q550.6075,243.0469 551.9513,243.0469 Q552.5763,243.0469 553.17,242.7813 Q553.7638,242.5 554.3888,241.9219 L554.3888,244.6406 Z " fill="#000000"/><text fill="#000000" font-family="sans-serif" font-size="14" lengthAdjust="spacing" textLength="189.0547" x="565.42" y="243.8467">manual_point_adjustments</text><line style="stroke:#181818;stroke-width:0.5;" x1="537.42" x2="756.4747" y1="255" y2="255"/><line style="stroke:#181818;stroke-width:0.5;" x1="537.42" x2="756.4747" y1="263" y2="263"/></g><!--class performance_lists--><g class="entity" data-entity="performance_lists" data-source-line="11" data-uid="ent0019" id="entity_performance_lists"><rect fill="#F1F1F1" height="48" rx="2.5" ry="2.5" style="stroke:#181818;stroke-width:0.5;" width="156.7627" x="130.42" y="223"/><ellipse cx="145.42" cy="239" fill="#ADD1B2" rx="11" ry="11" style="stroke:#181818;stroke-width:1;"/><path d="M148.3888,244.6406 Q147.8106,244.9375 147.17,245.0781 Q146.5294,245.2344 145.8263,245.2344 Q143.3263,245.2344 141.9981,243.5938 Q140.6856,241.9375 140.6856,238.8125 Q140.6856,235.6875 141.9981,234.0313 Q143.3263,232.375 145.8263,232.375 Q146.5294,232.375 147.17,232.5313 Q147.8263,232.6875 148.3888,232.9844 L148.3888,235.7031 Q147.7638,235.125 147.17,234.8594 Q146.5763,234.5781 145.9513,234.5781 Q144.6075,234.5781 143.92,235.6563 Q143.2325,236.7188 143.2325,238.8125 Q143.2325,240.9063 143.92,241.9844 Q144.6075,243.0469 145.9513,243.0469 Q146.5763,243.0469 147.17,242.7813 Q147.7638,242.5 148.3888,241.9219 L148.3888,244.6406 Z " fill="#000000"/><text fill="#000000" font-family="sans-serif" font-size="14" lengthAdjust="spacing" textLength="124.7627" x="159.42" y="243.8467">performance_lists</text><line style="stroke:#181818;stroke-width:0.5;" x1="131.42" x2="286.1827" y1="255" y2="255"/><line style="stroke:#181818;stroke-width:0.5;" x1="131.42" x2="286.1827" y1="263" y2="263"/></g><!--class user_groups--><g class="entity" data-entity="user_groups" data-source-line="14" data-uid="ent0021" id="entity_user_groups"><rect fill="#F1F1F1" height="48" rx="2.5" ry="2.5" style="stroke:#181818;stroke-width:0.5;" width="117.7979" x="889.92" y="223"/><ellipse cx="904.92" cy="239" fill="#ADD1B2" rx="11" ry="11" style="stroke:#181818;stroke-width:1;"/><path d="M907.8888,244.6406 Q907.3106,244.9375 906.67,245.0781 Q906.0294,245.2344 905.3263,245.2344 Q902.8263,245.2344 901.4981,243.5938 Q900.1856,241.9375 900.1856,238.8125 Q900.1856,235.6875 901.4981,234.0313 Q902.8263,232.375 905.3263,232.375 Q906.0294,232.375 906.67,232.5313 Q907.3263,232.6875 907.8888,232.9844 L907.8888,235.7031 Q907.2638,235.125 906.67,234.8594 Q906.0763,234.5781 905.4513,234.5781 Q904.1075,234.5781 903.42,235.6563 Q902.7325,236.7188 902.7325,238.8125 Q902.7325,240.9063 903.42,241.9844 Q904.1075,243.0469 905.4513,243.0469 Q906.0763,243.0469 906.67,242.7813 Q907.2638,242.5 907.8888,241.9219 L907.8888,244.6406 Z " fill="#000000"/><text fill="#000000" font-family="sans-serif" font-size="14" lengthAdjust="spacing" textLength="85.7979" x="918.92" y="243.8467">user_groups</text><line style="stroke:#181818;stroke-width:0.5;" x1="890.92" x2="1006.7179" y1="255" y2="255"/><line style="stroke:#181818;stroke-width:0.5;" x1="890.92" x2="1006.7179" y1="263" y2="263"/></g><!--reverse link users to periods--><g class="link" data-entity-1="users" data-entity-2="periods" data-source-line="3" data-uid="lnk4" id="link_users_periods"><path codeLine="3" d="M539.778,64.4919 C526.118,82.1519 514.68,96.94 500.96,114.68" fill="none" id="users-backto-periods" style="stroke:#181818;stroke-width:1;"/><polygon fill="none" points="547.12,55,540.2851,57.2986,539.778,64.4919,546.613,62.1933,547.12,55" style="stroke:#181818;stroke-width:1;"/></g><!--reverse link users to groups--><g class="link" data-entity-1="users" data-entity-2="groups" data-source-line="4" data-uid="lnk6" id="link_users_groups"><path codeLine="4" d="M612.0544,42.527 C672.7644,56.257 788.73,83.48 894.92,115 C903.64,117.59 912.92,120.6 921.7,123.58" fill="none" id="users-backto-groups" style="stroke:#181818;stroke-width:1;"/><polygon fill="none" points="600.35,39.88,605.3199,45.105,612.0544,42.527,607.0846,37.302,600.35,39.88" style="stroke:#181818;stroke-width:1;"/></g><!--reverse link users to metric_types--><g class="link" data-entity-1="users" data-entity-2="metric_types" data-source-line="5" data-uid="lnk8" id="link_users_metric_types"><path codeLine="5" d="M517.8189,38.9143 C458.9489,48.2743 349.77,69.76 256.92,115 C185,150.04 154.01,154.36 112.92,223 C92.83,256.56 90.6,303.32 91.37,330.94" fill="none" id="users-backto-metric_types" style="stroke:#181818;stroke-width:1;"/><polygon fill="none" points="529.67,37.03,523.1163,34.0218,517.8189,38.9143,524.3725,41.9225,529.67,37.03" style="stroke:#181818;stroke-width:1;"/></g><!--reverse link users to metric_facts--><g class="link" data-entity-1="users" data-entity-2="metric_facts" data-source-line="6" data-uid="lnk10" id="link_users_metric_facts"><path codeLine="6" d="M517.8629,36.9908 C430.5429,46.6608 218.27,73.62 156.92,115 C61.46,179.37 47.1,220.75 13.92,331 C7.77,351.43 6,359.19 13.92,379 C23.52,403.01 43.74,424.04 61.32,438.92" fill="none" id="users-backto-metric_facts" style="stroke:#181818;stroke-width:1;"/><polygon fill="none" points="529.79,35.67,523.3862,32.3547,517.8629,36.9908,524.2667,40.3061,529.79,35.67" style="stroke:#181818;stroke-width:1;"/></g><!--reverse link users to achievement_types--><g class="link" data-entity-1="users" data-entity-2="achievement_types" data-source-line="7" data-uid="lnk12" id="link_users_achievement_types"><path codeLine="7" d="M518.7631,51.714 C487.9431,65.854 454.25,84.55 422.92,115 C354.72,181.28 304.14,284.81 283.78,330.72" fill="none" id="users-backto-achievement_types" style="stroke:#181818;stroke-width:1;"/><polygon fill="none" points="529.67,46.71,522.5486,45.5764,518.7631,51.714,525.8846,52.8476,529.67,46.71" style="stroke:#181818;stroke-width:1;"/></g><!--reverse link users to achievement_facts--><g class="link" data-entity-1="users" data-entity-2="achievement_facts" data-source-line="8" data-uid="lnk14" id="link_users_achievement_facts"><path codeLine="8" d="M610.8594,53.6339 C683.2294,89.5439 827.01,174.68 774.92,271 C728.02,357.72 622.73,411.37 552.25,438.95" fill="none" id="users-backto-achievement_facts" style="stroke:#181818;stroke-width:1;"/><polygon fill="none" points="600.11,48.3,603.7068,54.5501,610.8594,53.6339,607.2627,47.3838,600.11,48.3" style="stroke:#181818;stroke-width:1;"/></g><!--reverse link users to audit_log--><g class="link" data-entity-1="users" data-entity-2="audit_log" data-source-line="9" data-uid="lnk16" id="link_users_audit_log"><path codeLine="9" d="M612.0561,38.0456 C689.0661,48.2456 865.9,73.98 1019.92,115 C1025.47,116.48 1031.22,118.21 1036.91,120.05" fill="none" id="users-backto-audit_log" style="stroke:#181818;stroke-width:1;"/><polygon fill="none" points="600.16,36.47,605.5828,41.2232,612.0561,38.0456,606.6333,33.2925,600.16,36.47" style="stroke:#181818;stroke-width:1;"/></g><!--reverse link users to manual_point_adjustments--><g class="link" data-entity-1="users" data-entity-2="manual_point_adjustments" data-source-line="10" data-uid="lnk18" id="link_users_manual_point_adjustments"><path codeLine="10" d="M578.1433,66.5157 C593.9133,107.6757 622.23,181.58 638,222.72" fill="none" id="users-backto-manual_point_adjustments" style="stroke:#181818;stroke-width:1;"/><polygon fill="none" points="573.85,55.31,572.2614,62.344,578.1433,66.5157,579.7319,59.4817,573.85,55.31" style="stroke:#181818;stroke-width:1;"/></g><!--reverse link users to performance_lists--><g class="link" data-entity-1="users" data-entity-2="performance_lists" data-source-line="11" data-uid="lnk20" id="link_users_performance_lists"><path codeLine="11" d="M517.9696,39.2784 C466.8796,48.2184 382.6,68.15 314.92,115 C273.18,143.89 239.33,193.79 221.84,222.96" fill="none" id="users-backto-performance_lists" style="stroke:#181818;stroke-width:1;"/><polygon fill="none" points="529.79,37.21,523.1903,34.3041,517.9696,39.2784,524.5693,42.1843,529.79,37.21" style="stroke:#181818;stroke-width:1;"/></g><!--reverse link users to user_groups--><g class="link" data-entity-1="users" data-entity-2="user_groups" data-source-line="14" data-uid="lnk22" id="link_users_user_groups"><path codeLine="14" d="M611.7387,39.6541 C663.8087,49.0641 751.48,69.64 823.92,115 C870.14,143.95 911.13,193.83 932.74,222.97" fill="none" id="users-backto-user_groups" style="stroke:#181818;stroke-width:1;"/><polygon fill="none" points="599.93,37.52,605.123,42.5233,611.7387,39.6541,606.5457,34.6508,599.93,37.52" style="stroke:#181818;stroke-width:1;"/><text fill="#000000" font-family="sans-serif" font-size="13" lengthAdjust="spacing" textLength="24.7749" x="901.6441" y="211.9743">0..n</text></g><!--reverse link groups to user_groups--><g class="link" data-entity-1="groups" data-entity-2="user_groups" data-source-line="15" data-uid="lnk23" id="link_groups_user_groups"><path codeLine="15" d="M957.6365,174.9104 C955.4665,192.5704 953.95,204.94 951.78,222.68" fill="none" id="groups-backto-user_groups" style="stroke:#181818;stroke-width:1;"/><polygon fill="none" points="959.1,163,954.3981,168.4674,957.6365,174.9104,962.3384,169.443,959.1,163" style="stroke:#181818;stroke-width:1;"/><text fill="#000000" font-family="sans-serif" font-size="13" lengthAdjust="spacing" textLength="24.7749" x="955.5212" y="212.007">0..n</text></g><!--reverse link periods to metric_facts--><g class="link" data-entity-1="periods" data-entity-2="metric_facts" data-source-line="18" data-uid="lnk24" id="link_periods_metric_facts"><path codeLine="18" d="M476.9605,175.0048 C468.0305,222.6748 443.22,320.26 375.92,379 C312.75,434.13 214.6,452.69 152.07,458.91" fill="none" id="periods-backto-metric_facts" style="stroke:#181818;stroke-width:1;"/><polygon fill="#181818" points="479.17,163.21,474.1336,168.3709,476.9605,175.0048,481.9968,169.8439,479.17,163.21" style="stroke:#181818;stroke-width:1;"/></g><!--reverse link periods to achievement_facts--><g class="link" data-entity-1="periods" data-entity-2="achievement_facts" data-source-line="19" data-uid="lnk25" id="link_periods_achievement_facts"><path codeLine="19" d="M482.92,175.16 C482.92,234.42 482.92,379.11 482.92,438.62" fill="none" id="periods-backto-achievement_facts" style="stroke:#181818;stroke-width:1;"/><polygon fill="#181818" points="482.92,163.16,478.92,169.16,482.92,175.16,486.92,169.16,482.92,163.16" style="stroke:#181818;stroke-width:1;"/></g><!--reverse link periods to manual_point_adjustments--><g class="link" data-entity-1="periods" data-entity-2="manual_point_adjustments" data-source-line="20" data-uid="lnk26" id="link_periods_manual_point_adjustments"><path codeLine="20" d="M528.5786,169.5132 C555.9986,187.2332 583.65,205.11 611.12,222.86" fill="none" id="periods-backto-manual_point_adjustments" style="stroke:#181818;stroke-width:1;"/><polygon fill="#181818" points="518.5,163,521.3682,169.6161,528.5786,169.5132,525.7104,162.8971,518.5,163" style="stroke:#181818;stroke-width:1;"/></g><!--reverse link periods to performance_lists--><g class="link" data-entity-1="periods" data-entity-2="performance_lists" data-source-line="21" data-uid="lnk27" id="link_periods_performance_lists"><path codeLine="21" d="M429.5183,160.6595 C383.4283,178.4895 320.47,202.85 268.47,222.96" fill="none" id="periods-backto-performance_lists" style="stroke:#181818;stroke-width:1;"/><polygon fill="none" points="440.71,156.33,433.6709,154.7642,429.5183,160.6595,436.5573,162.2254,440.71,156.33" style="stroke:#181818;stroke-width:1;"/></g><!--reverse link metric_types to metric_facts--><g class="link" data-entity-1="metric_types" data-entity-2="metric_facts" data-source-line="24" data-uid="lnk28" id="link_metric_types_metric_facts"><path codeLine="24" d="M92.92,391 C92.92,408.66 92.92,420.94 92.92,438.68" fill="none" id="metric_types-backto-metric_facts" style="stroke:#181818;stroke-width:1;"/><polygon fill="#181818" points="92.92,379,88.92,385,92.92,391,96.92,385,92.92,379" style="stroke:#181818;stroke-width:1;"/></g><!--reverse link performance_lists to metric_types--><g class="link" data-entity-1="performance_lists" data-entity-2="metric_types" data-source-line="25" data-uid="lnk29" id="link_performance_lists_metric_types"><path codeLine="25" d="M174.8907,279.0939 C155.5607,296.7539 137.85,312.94 118.44,330.68" fill="none" id="performance_lists-backto-metric_types" style="stroke:#181818;stroke-width:1;"/><polygon fill="none" points="183.75,271,176.6223,272.0939,174.8907,279.0939,182.0183,278.0001,183.75,271" style="stroke:#181818;stroke-width:1;"/></g><!--reverse link achievement_types to achievement_facts--><g class="link" data-entity-1="achievement_types" data-entity-2="achievement_facts" data-source-line="28" data-uid="lnk30" id="link_achievement_types_achievement_facts"><path codeLine="28" d="M329.9717,384.429 C364.9017,402.149 402.29,421.11 437.3,438.86" fill="none" id="achievement_types-backto-achievement_facts" style="stroke:#181818;stroke-width:1;"/><polygon fill="#181818" points="319.27,379,322.8112,385.2817,329.9717,384.429,326.4305,378.1473,319.27,379" style="stroke:#181818;stroke-width:1;"/></g><!--reverse link performance_lists to achievement_types--><g class="link" data-entity-1="performance_lists" data-entity-2="achievement_types" data-source-line="29" data-uid="lnk31" id="link_performance_lists_achievement_types"><path codeLine="29" d="M229.2933,281.2296 C240.1233,298.8896 248.74,312.94 259.62,330.68" fill="none" id="performance_lists-backto-achievement_types" style="stroke:#181818;stroke-width:1;"/><polygon fill="none" points="223.02,271,222.7468,278.2059,229.2933,281.2296,229.5665,274.0237,223.02,271" style="stroke:#181818;stroke-width:1;"/></g><!--SRC=[TLBHIiCm57tlLuIzJ8KE_wYKBfkHhYbDAlWsfsyLVD17ORymr6hjjkuNJlx8MvsGBYq4BfnxJyx9oHqphD5WQnxnHVKD6xD2YIqgBrSyKqpwFajv9kHKMSWyatbg0mkkCn45-ZRbFV0iZBGDXz6Lu3TymHFjKEoUmykdGWUndDiIOPA7SP1AGOHmUfqhtN9Lr_zCPZGOyI0MYdhUcE7PBCqz3ZYOWb7f2w74Dpl33dj2tr6Xz56ZyIraTsxfZ2udasJ4MY0u9lHNXhgjZJLAiwIR6doOmZj6pIvEmxCRRaGTsb0W_qF3aRoIbzMlcneLesCUi45DME7PFznhhtkVknMjm0iQSqVXLlYaSFUepDE9ZBCQmo_k4NGNwmS0]--></g></svg>